<svg width="25" height="24" viewBox="0 0 25 24" fill="none" xmlns="http://www.w3.org/2000/svg">
<path d="M23.977 7.0561C23.92 5.7809 23.714 4.9042 23.419 4.1445C23.114 3.3381 22.645 2.6162 22.031 2.016C21.431 1.40652 20.704 0.93292 19.907 0.63294C19.143 0.33753 18.271 0.13131 16.996 0.0750904C15.711 0.0141004 15.303 0 12.045 0C8.78599 0 8.37799 0.0140997 7.09799 0.0703297C5.82299 0.12655 4.94599 0.33295 4.18699 0.62817C3.37999 0.93292 2.65799 1.40176 2.05799 2.016C1.44899 2.6162 0.974995 3.3429 0.674995 4.1399C0.379995 4.9042 0.173989 5.7761 0.116989 7.0513C0.0559891 8.336 0.0419922 8.7439 0.0419922 12.0023C0.0419922 15.2608 0.0559913 15.6686 0.112991 16.9486C0.168991 18.2238 0.37499 19.1005 0.67099 19.8602C0.97499 20.6666 1.44899 21.3885 2.05799 21.9887C2.65799 22.5982 3.38499 23.0718 4.18199 23.3718C4.94599 23.6672 5.81799 23.8734 7.09399 23.9296C8.37399 23.986 8.78199 23.9999 12.04 23.9999C15.298 23.9999 15.706 23.986 16.986 23.9296C18.261 23.8734 19.138 23.6672 19.898 23.3718C21.511 22.7482 22.786 21.4729 23.409 19.8602C23.705 19.096 23.911 18.2238 23.967 16.9486C24.023 15.6686 24.038 15.2608 24.038 12.0023C24.038 8.7439 24.033 8.336 23.977 7.0561ZM21.815 16.8549C21.764 18.027 21.567 18.6599 21.403 19.0819C20.999 20.1274 20.17 20.9572 19.124 21.3605C18.702 21.5246 18.065 21.7215 16.897 21.7729C15.631 21.8293 15.252 21.8433 12.049 21.8433C8.84699 21.8433 8.46299 21.8293 7.20099 21.7729C6.02899 21.7215 5.39599 21.5246 4.97399 21.3605C4.45399 21.1682 3.98099 20.8634 3.59599 20.4649C3.19799 20.0758 2.89299 19.6069 2.70099 19.0866C2.53599 18.6647 2.33999 18.027 2.28799 16.8596C2.23199 15.5937 2.21799 15.2139 2.21799 12.0117C2.21799 8.8095 2.23199 8.425 2.28799 7.1639C2.33999 5.9918 2.53599 5.3589 2.70099 4.9369C2.89299 4.4165 3.19799 3.943 3.60099 3.5584C3.98999 3.1599 4.45899 2.8552 4.97899 2.6631C5.40099 2.499 6.03899 2.3021 7.20599 2.2504C8.47199 2.1942 8.85199 2.1801 12.054 2.1801C15.261 2.1801 15.641 2.1942 16.902 2.2504C18.074 2.3021 18.707 2.499 19.129 2.6631C19.649 2.8552 20.123 3.1599 20.507 3.5584C20.906 3.9476 21.21 4.4165 21.403 4.9369C21.567 5.3589 21.764 5.9964 21.815 7.1639C21.872 8.4298 21.886 8.8095 21.886 12.0117C21.886 15.2139 21.872 15.589 21.815 16.8549Z" fill="white"/>
<path d="M12.044 5.83719C8.64101 5.83719 5.879 8.59859 5.879 12.0024C5.879 15.4063 8.64101 18.1677 12.044 18.1677C15.448 18.1677 18.21 15.4063 18.21 12.0024C18.21 8.59859 15.448 5.83719 12.044 5.83719ZM12.044 16.0017C9.83601 16.0017 8.045 14.2107 8.045 12.0024C8.045 9.79409 9.83601 8.00319 12.044 8.00319C14.253 8.00319 16.044 9.79409 16.044 12.0024C16.044 14.2107 14.253 16.0017 12.044 16.0017Z" fill="white"/>
<path d="M19.893 5.5932C19.893 6.3881 19.248 7.0325 18.453 7.0325C17.659 7.0325 17.014 6.3881 17.014 5.5932C17.014 4.7982 17.659 4.1539 18.453 4.1539C19.248 4.1539 19.893 4.7982 19.893 5.5932Z" fill="white"/>
</svg>
