<svg width="20" height="20" viewBox="0 0 20 20" fill="none" xmlns="http://www.w3.org/2000/svg">
<path d="M19.995 20V19.9992H20V12.6642C20 9.07591 19.2275 6.31171 15.0325 6.31171C13.0158 6.31171 11.6625 7.41841 11.11 8.46751H11.0517V6.64671H7.0742V19.9992H11.2158V13.3875C11.2158 11.6467 11.5458 9.96341 13.7017 9.96341C15.8258 9.96341 15.8575 11.95 15.8575 13.4992V20H19.995Z" fill="white"/>
<path d="M0.330002 6.64749H4.4767V20H0.330002V6.64749Z" fill="white"/>
<path d="M2.4017 0C1.0758 0 0 1.0758 0 2.4017C0 3.7275 1.0758 4.8258 2.4017 4.8258C3.7275 4.8258 4.8033 3.7275 4.8033 2.4017C4.8025 1.0758 3.7267 0 2.4017 0Z" fill="white"/>
</svg>
